<?xml version="1.0" standalone="no"?><svg xmlns="http://www.w3.org/2000/svg" viewBox="0 0 1440 320"><path fill="#5000ca" fill-opacity="1" d="M0,224L26.7,213.3C53.3,203,107,181,160,176C213.3,171,267,181,320,192C373.3,203,427,213,480,192C533.3,171,587,117,640,112C693.3,107,747,149,800,160C853.3,171,907,149,960,133.3C1013.3,117,1067,107,1120,122.7C1173.3,139,1227,181,1280,197.3C1333.3,213,1387,203,1413,197.3L1440,192L1440,320L1413.3,320C1386.7,320,1333,320,1280,320C1226.7,320,1173,320,1120,320C1066.7,320,1013,320,960,320C906.7,320,853,320,800,320C746.7,320,693,320,640,320C586.7,320,533,320,480,320C426.7,320,373,320,320,320C266.7,320,213,320,160,320C106.7,320,53,320,27,320L0,320Z"></path></svg>